<mxfile host="app.diagrams.net" modified="2023-04-25T15:10:51.526Z" agent="Mozilla/5.0 (X11; Ubuntu; Linux x86_64; rv:109.0) Gecko/20100101 Firefox/112.0" etag="kXgnurBpSni5rs5pTtT4" version="21.2.1" type="github">
  <diagram name="Page-1" id="e3a06f82-3646-2815-327d-82caf3d4e204">
    <mxGraphModel dx="1226" dy="678" grid="1" gridSize="10" guides="1" tooltips="1" connect="1" arrows="1" fold="1" page="1" pageScale="1.5" pageWidth="1169" pageHeight="826" background="none" math="0" shadow="0">
      <root>
        <mxCell id="0" style=";html=1;" />
        <mxCell id="1" style=";html=1;" parent="0" />
        <mxCell id="sc8MJLwOmtzSrlmjD8fI-22" value="" style="rounded=1;whiteSpace=wrap;html=1;strokeWidth=0.5;dashed=1;fillColor=#f5f5f5;fontColor=#333333;strokeColor=#666666;" parent="1" vertex="1">
          <mxGeometry x="90" y="120" width="300" height="380" as="geometry" />
        </mxCell>
        <mxCell id="sc8MJLwOmtzSrlmjD8fI-8" value="POD" style="rounded=0;whiteSpace=wrap;html=1;strokeWidth=0.5;fillColor=#dae8fc;strokeColor=#6c8ebf;" parent="1" vertex="1">
          <mxGeometry x="110" y="160" width="120" height="79" as="geometry" />
        </mxCell>
        <mxCell id="6a7d8f32e03d9370-61" value="&lt;div&gt;&lt;br&gt;&lt;/div&gt;&lt;div&gt;cni0(10.244.0.1)&lt;/div&gt;" style="whiteSpace=wrap;html=1;fillColor=#f8cecc;fontSize=14;strokeColor=#b85450;verticalAlign=top;strokeWidth=0.5;" parent="1" vertex="1">
          <mxGeometry x="110" y="300" width="260" height="60" as="geometry" />
        </mxCell>
        <mxCell id="sc8MJLwOmtzSrlmjD8fI-23" value="worker01" style="text;html=1;strokeColor=none;fillColor=none;align=center;verticalAlign=middle;whiteSpace=wrap;rounded=0;" parent="1" vertex="1">
          <mxGeometry x="210" y="120" width="60" height="30" as="geometry" />
        </mxCell>
        <mxCell id="sc8MJLwOmtzSrlmjD8fI-26" value="192.168.122.190" style="shadow=0;dashed=0;html=1;labelPosition=center;verticalLabelPosition=bottom;verticalAlign=top;align=center;outlineConnect=0;shape=mxgraph.veeam.3d.network_card;" parent="1" vertex="1">
          <mxGeometry x="221" y="480" width="38" height="40" as="geometry" />
        </mxCell>
        <mxCell id="GQ9nSxZWVriDuMtLlA-Z-1" value="POD" style="rounded=0;whiteSpace=wrap;html=1;strokeWidth=0.5;fillColor=#d5e8d4;strokeColor=#82b366;" parent="1" vertex="1">
          <mxGeometry x="250" y="160" width="120" height="79" as="geometry" />
        </mxCell>
        <mxCell id="GQ9nSxZWVriDuMtLlA-Z-3" value="&lt;font style=&quot;font-size: 11px;&quot;&gt;eth0&lt;/font&gt;" style="rounded=0;whiteSpace=wrap;html=1;strokeWidth=0.5;fillColor=#dae8fc;strokeColor=#6c8ebf;dashed=1;" parent="1" vertex="1">
          <mxGeometry x="155" y="220" width="30" height="30" as="geometry" />
        </mxCell>
        <mxCell id="GQ9nSxZWVriDuMtLlA-Z-8" value="veth" style="rounded=0;whiteSpace=wrap;html=1;strokeWidth=0.5;fillColor=#dae8fc;strokeColor=#6c8ebf;dashed=1;" parent="1" vertex="1">
          <mxGeometry x="155" y="290" width="30" height="30" as="geometry" />
        </mxCell>
        <mxCell id="GQ9nSxZWVriDuMtLlA-Z-10" value="" style="endArrow=classic;startArrow=classic;html=1;rounded=0;entryX=0.5;entryY=1;entryDx=0;entryDy=0;exitX=0.5;exitY=0;exitDx=0;exitDy=0;" parent="1" source="GQ9nSxZWVriDuMtLlA-Z-8" target="GQ9nSxZWVriDuMtLlA-Z-3" edge="1">
          <mxGeometry width="50" height="50" relative="1" as="geometry">
            <mxPoint x="-120" y="380" as="sourcePoint" />
            <mxPoint x="-70" y="330" as="targetPoint" />
          </mxGeometry>
        </mxCell>
        <mxCell id="GQ9nSxZWVriDuMtLlA-Z-11" value="&lt;font style=&quot;font-size: 11px;&quot;&gt;eth0&lt;/font&gt;" style="rounded=0;whiteSpace=wrap;html=1;strokeWidth=0.5;fillColor=#d5e8d4;strokeColor=#82b366;dashed=1;" parent="1" vertex="1">
          <mxGeometry x="295" y="220" width="30" height="30" as="geometry" />
        </mxCell>
        <mxCell id="GQ9nSxZWVriDuMtLlA-Z-13" value="veth" style="rounded=0;whiteSpace=wrap;html=1;strokeWidth=0.5;fillColor=#d5e8d4;strokeColor=#82b366;dashed=1;" parent="1" vertex="1">
          <mxGeometry x="295" y="290" width="30" height="30" as="geometry" />
        </mxCell>
        <mxCell id="GQ9nSxZWVriDuMtLlA-Z-14" value="" style="endArrow=classic;startArrow=classic;html=1;rounded=0;entryX=0.5;entryY=1;entryDx=0;entryDy=0;exitX=0.5;exitY=0;exitDx=0;exitDy=0;" parent="1" source="GQ9nSxZWVriDuMtLlA-Z-13" target="GQ9nSxZWVriDuMtLlA-Z-11" edge="1">
          <mxGeometry width="50" height="50" relative="1" as="geometry">
            <mxPoint x="-100" y="370" as="sourcePoint" />
            <mxPoint x="-50" y="320" as="targetPoint" />
          </mxGeometry>
        </mxCell>
        <mxCell id="XjlNCTNv254b6shq8vdB-21" value="" style="whiteSpace=wrap;html=1;fillColor=#e1d5e7;fontSize=14;strokeColor=#9673a6;verticalAlign=top;strokeWidth=0.5;" parent="1" vertex="1">
          <mxGeometry x="110" y="401" width="260" height="39" as="geometry" />
        </mxCell>
        <mxCell id="XjlNCTNv254b6shq8vdB-22" value="&lt;div&gt;&lt;br&gt;&lt;/div&gt;&lt;div&gt;flannel.1(10.244.1.0)&lt;/div&gt;" style="text;html=1;strokeColor=none;fillColor=none;align=center;verticalAlign=middle;whiteSpace=wrap;rounded=0;" parent="1" vertex="1">
          <mxGeometry x="210" y="411" width="60" height="10" as="geometry" />
        </mxCell>
        <mxCell id="XjlNCTNv254b6shq8vdB-24" value="" style="rounded=1;whiteSpace=wrap;html=1;strokeWidth=0.5;dashed=1;fillColor=#f5f5f5;fontColor=#333333;strokeColor=#666666;" parent="1" vertex="1">
          <mxGeometry x="440" y="120" width="300" height="380" as="geometry" />
        </mxCell>
        <mxCell id="XjlNCTNv254b6shq8vdB-25" value="POD" style="rounded=0;whiteSpace=wrap;html=1;strokeWidth=0.5;fillColor=#dae8fc;strokeColor=#6c8ebf;" parent="1" vertex="1">
          <mxGeometry x="460" y="160" width="120" height="79" as="geometry" />
        </mxCell>
        <mxCell id="XjlNCTNv254b6shq8vdB-26" value="&lt;div&gt;&lt;br&gt;&lt;/div&gt;&lt;div&gt;cni0(10.244.0.1)&lt;/div&gt;" style="whiteSpace=wrap;html=1;fillColor=#f8cecc;fontSize=14;strokeColor=#b85450;verticalAlign=top;strokeWidth=0.5;" parent="1" vertex="1">
          <mxGeometry x="460" y="300" width="260" height="60" as="geometry" />
        </mxCell>
        <mxCell id="XjlNCTNv254b6shq8vdB-27" value="worker02" style="text;html=1;strokeColor=none;fillColor=none;align=center;verticalAlign=middle;whiteSpace=wrap;rounded=0;" parent="1" vertex="1">
          <mxGeometry x="560" y="120" width="60" height="30" as="geometry" />
        </mxCell>
        <mxCell id="XjlNCTNv254b6shq8vdB-28" value="192.168.122.163" style="shadow=0;dashed=0;html=1;labelPosition=center;verticalLabelPosition=bottom;verticalAlign=top;align=center;outlineConnect=0;shape=mxgraph.veeam.3d.network_card;" parent="1" vertex="1">
          <mxGeometry x="571" y="480" width="38" height="40" as="geometry" />
        </mxCell>
        <mxCell id="XjlNCTNv254b6shq8vdB-29" value="POD" style="rounded=0;whiteSpace=wrap;html=1;strokeWidth=0.5;fillColor=#d5e8d4;strokeColor=#82b366;" parent="1" vertex="1">
          <mxGeometry x="600" y="160" width="120" height="79" as="geometry" />
        </mxCell>
        <mxCell id="XjlNCTNv254b6shq8vdB-30" value="&lt;font style=&quot;font-size: 11px;&quot;&gt;eth0&lt;/font&gt;" style="rounded=0;whiteSpace=wrap;html=1;strokeWidth=0.5;fillColor=#dae8fc;strokeColor=#6c8ebf;dashed=1;" parent="1" vertex="1">
          <mxGeometry x="505" y="220" width="30" height="30" as="geometry" />
        </mxCell>
        <mxCell id="XjlNCTNv254b6shq8vdB-31" value="veth" style="rounded=0;whiteSpace=wrap;html=1;strokeWidth=0.5;fillColor=#dae8fc;strokeColor=#6c8ebf;dashed=1;" parent="1" vertex="1">
          <mxGeometry x="505" y="290" width="30" height="30" as="geometry" />
        </mxCell>
        <mxCell id="XjlNCTNv254b6shq8vdB-32" value="" style="endArrow=classic;startArrow=classic;html=1;rounded=0;entryX=0.5;entryY=1;entryDx=0;entryDy=0;exitX=0.5;exitY=0;exitDx=0;exitDy=0;" parent="1" source="XjlNCTNv254b6shq8vdB-31" target="XjlNCTNv254b6shq8vdB-30" edge="1">
          <mxGeometry width="50" height="50" relative="1" as="geometry">
            <mxPoint x="230" y="380" as="sourcePoint" />
            <mxPoint x="280" y="330" as="targetPoint" />
          </mxGeometry>
        </mxCell>
        <mxCell id="XjlNCTNv254b6shq8vdB-33" value="&lt;font style=&quot;font-size: 11px;&quot;&gt;eth0&lt;/font&gt;" style="rounded=0;whiteSpace=wrap;html=1;strokeWidth=0.5;fillColor=#d5e8d4;strokeColor=#82b366;dashed=1;" parent="1" vertex="1">
          <mxGeometry x="645" y="220" width="30" height="30" as="geometry" />
        </mxCell>
        <mxCell id="XjlNCTNv254b6shq8vdB-34" value="veth" style="rounded=0;whiteSpace=wrap;html=1;strokeWidth=0.5;fillColor=#d5e8d4;strokeColor=#82b366;dashed=1;" parent="1" vertex="1">
          <mxGeometry x="645" y="290" width="30" height="30" as="geometry" />
        </mxCell>
        <mxCell id="XjlNCTNv254b6shq8vdB-35" value="" style="endArrow=classic;startArrow=classic;html=1;rounded=0;entryX=0.5;entryY=1;entryDx=0;entryDy=0;exitX=0.5;exitY=0;exitDx=0;exitDy=0;" parent="1" source="XjlNCTNv254b6shq8vdB-34" target="XjlNCTNv254b6shq8vdB-33" edge="1">
          <mxGeometry width="50" height="50" relative="1" as="geometry">
            <mxPoint x="250" y="370" as="sourcePoint" />
            <mxPoint x="300" y="320" as="targetPoint" />
          </mxGeometry>
        </mxCell>
        <mxCell id="XjlNCTNv254b6shq8vdB-36" value="" style="whiteSpace=wrap;html=1;fillColor=#e1d5e7;fontSize=14;strokeColor=#9673a6;verticalAlign=top;strokeWidth=0.5;" parent="1" vertex="1">
          <mxGeometry x="460" y="401" width="260" height="39" as="geometry" />
        </mxCell>
        <mxCell id="XjlNCTNv254b6shq8vdB-37" value="&lt;div&gt;&lt;br&gt;&lt;/div&gt;&lt;div&gt;flannel.1(10.244.2.0)&lt;/div&gt;" style="text;html=1;strokeColor=none;fillColor=none;align=center;verticalAlign=middle;whiteSpace=wrap;rounded=0;" parent="1" vertex="1">
          <mxGeometry x="560" y="411" width="60" height="10" as="geometry" />
        </mxCell>
        <mxCell id="XjlNCTNv254b6shq8vdB-38" value="" style="endArrow=classic;startArrow=classic;html=1;rounded=0;entryX=0.5;entryY=1;entryDx=0;entryDy=0;exitX=0.5;exitY=0;exitDx=0;exitDy=0;" parent="1" source="XjlNCTNv254b6shq8vdB-21" target="6a7d8f32e03d9370-61" edge="1">
          <mxGeometry width="50" height="50" relative="1" as="geometry">
            <mxPoint x="180" y="300" as="sourcePoint" />
            <mxPoint x="180" y="260" as="targetPoint" />
          </mxGeometry>
        </mxCell>
        <mxCell id="XjlNCTNv254b6shq8vdB-39" value="" style="endArrow=classic;startArrow=classic;html=1;rounded=0;entryX=0.5;entryY=1;entryDx=0;entryDy=0;" parent="1" source="sc8MJLwOmtzSrlmjD8fI-26" target="XjlNCTNv254b6shq8vdB-21" edge="1">
          <mxGeometry width="50" height="50" relative="1" as="geometry">
            <mxPoint x="250" y="411" as="sourcePoint" />
            <mxPoint x="250" y="370" as="targetPoint" />
            <Array as="points">
              <mxPoint x="240" y="460" />
            </Array>
          </mxGeometry>
        </mxCell>
        <mxCell id="XjlNCTNv254b6shq8vdB-40" value="" style="endArrow=classic;startArrow=classic;html=1;rounded=0;entryX=0.5;entryY=1;entryDx=0;entryDy=0;" parent="1" source="XjlNCTNv254b6shq8vdB-28" target="XjlNCTNv254b6shq8vdB-36" edge="1">
          <mxGeometry width="50" height="50" relative="1" as="geometry">
            <mxPoint x="270" y="421" as="sourcePoint" />
            <mxPoint x="270" y="380" as="targetPoint" />
          </mxGeometry>
        </mxCell>
        <mxCell id="XjlNCTNv254b6shq8vdB-41" value="" style="endArrow=classic;startArrow=classic;html=1;rounded=0;entryX=0.5;entryY=1;entryDx=0;entryDy=0;exitX=0.5;exitY=0;exitDx=0;exitDy=0;" parent="1" source="XjlNCTNv254b6shq8vdB-36" target="XjlNCTNv254b6shq8vdB-26" edge="1">
          <mxGeometry width="50" height="50" relative="1" as="geometry">
            <mxPoint x="280" y="431" as="sourcePoint" />
            <mxPoint x="280" y="390" as="targetPoint" />
          </mxGeometry>
        </mxCell>
        <mxCell id="XjlNCTNv254b6shq8vdB-59" value="switch" style="verticalLabelPosition=bottom;sketch=0;html=1;fillColor=#6ABD46;strokeColor=#ffffff;verticalAlign=top;align=center;points=[[0.085,0.085,0],[0.915,0.085,0],[0.915,0.915,0],[0.085,0.915,0],[0.25,0,0],[0.5,0,0],[0.75,0,0],[1,0.25,0],[1,0.5,0],[1,0.75,0],[0.75,1,0],[0.5,1,0],[0.25,1,0],[0,0.75,0],[0,0.5,0],[0,0.25,0]];pointerEvents=1;shape=mxgraph.cisco_safe.compositeIcon;bgIcon=mxgraph.cisco_safe.architecture.generic_appliance;resIcon=mxgraph.cisco_safe.architecture.switch;" parent="1" vertex="1">
          <mxGeometry x="390" y="550" width="50" height="50" as="geometry" />
        </mxCell>
        <mxCell id="XjlNCTNv254b6shq8vdB-61" value="" style="endArrow=classic;startArrow=classic;html=1;rounded=0;exitX=0;exitY=0.5;exitDx=0;exitDy=0;exitPerimeter=0;" parent="1" source="XjlNCTNv254b6shq8vdB-59" edge="1">
          <mxGeometry width="50" height="50" relative="1" as="geometry">
            <mxPoint x="310" y="710" as="sourcePoint" />
            <mxPoint x="240" y="520" as="targetPoint" />
            <Array as="points">
              <mxPoint x="240" y="575" />
            </Array>
          </mxGeometry>
        </mxCell>
        <mxCell id="XjlNCTNv254b6shq8vdB-62" value="" style="endArrow=classic;startArrow=classic;html=1;rounded=0;exitX=1;exitY=0.5;exitDx=0;exitDy=0;exitPerimeter=0;" parent="1" source="XjlNCTNv254b6shq8vdB-59" target="XjlNCTNv254b6shq8vdB-28" edge="1">
          <mxGeometry width="50" height="50" relative="1" as="geometry">
            <mxPoint x="590" y="700" as="sourcePoint" />
            <mxPoint x="640" y="650" as="targetPoint" />
            <Array as="points">
              <mxPoint x="590" y="575" />
            </Array>
          </mxGeometry>
        </mxCell>
        <mxCell id="XjlNCTNv254b6shq8vdB-63" value="&lt;i&gt;&lt;font color=&quot;#ea6b66&quot;&gt;&lt;b&gt;&lt;font style=&quot;font-size: 14px;&quot;&gt;underlay network&lt;/font&gt;&lt;/b&gt;&lt;/font&gt;&lt;/i&gt;" style="ellipse;whiteSpace=wrap;html=1;fillColor=none;strokeColor=#b85450;fillStyle=cross-hatch;gradientColor=#ea6b66;" parent="1" vertex="1">
          <mxGeometry x="70" y="480" width="690" height="60" as="geometry" />
        </mxCell>
        <mxCell id="XjlNCTNv254b6shq8vdB-64" value="&lt;font color=&quot;#b0e3e6&quot;&gt;&lt;i&gt;&lt;b&gt;&lt;font style=&quot;font-size: 14px;&quot;&gt;overlay network&lt;/font&gt;&lt;/b&gt;&lt;/i&gt;&lt;/font&gt;" style="ellipse;whiteSpace=wrap;html=1;fillColor=none;strokeColor=#0e8088;fillStyle=cross-hatch;dashed=1;dashPattern=8 8;" parent="1" vertex="1">
          <mxGeometry x="70" y="380" width="690" height="80" as="geometry" />
        </mxCell>
      </root>
    </mxGraphModel>
  </diagram>
</mxfile>
